<svg   width="100%" height="auto" viewBox="0 0 200 40" fill="none" xmlns="http://www.w3.org/2000/svg">
<path d="M4.7046 6.03172L3.60255 4.92967L3.4542 4.78132L3.30585 4.92967L2.94962 5.2859L2.80132 5.4342L2.94957 5.58255L4.25912 6.89294L4.25919 6.89301C4.37722 7.011 4.53728 7.07729 4.70417 7.07729C4.87106 7.07729 5.03112 7.011 5.14915 6.89301L5.14917 6.89299L7.64575 4.39641L7.79401 4.24815L7.64584 4.0998L7.29002 3.74356L7.14169 3.59505L6.99325 3.74346L4.7046 6.03172ZM0.790203 5.2555C0.790203 7.68878 2.76265 9.66123 5.19593 9.66123C7.62921 9.66123 9.60166 7.68878 9.60166 5.2555C9.60166 2.82222 7.62921 0.849774 5.19593 0.849774C2.76265 0.849774 0.790203 2.82222 0.790203 5.2555ZM7.65852 7.71809C7.0054 8.37121 6.11958 8.73813 5.19593 8.73813C4.27228 8.73813 3.38646 8.37121 2.73335 7.71809C2.08023 7.06497 1.71331 6.17915 1.71331 5.2555C1.71331 4.33185 2.08023 3.44603 2.73335 2.79292C3.38646 2.1398 4.27228 1.77288 5.19593 1.77288C6.11958 1.77288 7.0054 2.1398 7.65852 2.79292C8.31164 3.44603 8.67856 4.33185 8.67856 5.2555C8.67856 6.17915 8.31164 7.06497 7.65852 7.71809Z" fill="#7593F5" stroke="#7593F5" stroke-width="0.419593"/>
<path d="M17.5626 8V1.28651H21.8634V2.30599H18.7787V4.1286H21.5684V5.14808H18.7787V8H17.5626ZM24.7456 8.09834C24.2539 8.09834 23.8278 7.99017 23.4672 7.77381C23.1066 7.55746 22.8269 7.25478 22.628 6.86579C22.4313 6.47679 22.333 6.02223 22.333 5.50211C22.333 4.98199 22.4313 4.52634 22.628 4.13515C22.8269 3.74397 23.1066 3.4402 23.4672 3.22385C23.8278 3.0075 24.2539 2.89932 24.7456 2.89932C25.2373 2.89932 25.6635 3.0075 26.0241 3.22385C26.3847 3.4402 26.6633 3.74397 26.86 4.13515C27.0589 4.52634 27.1583 4.98199 27.1583 5.50211C27.1583 6.02223 27.0589 6.47679 26.86 6.86579C26.6633 7.25478 26.3847 7.55746 26.0241 7.77381C25.6635 7.99017 25.2373 8.09834 24.7456 8.09834ZM24.7522 7.1477C25.0188 7.1477 25.2417 7.07449 25.4209 6.92807C25.6001 6.77946 25.7334 6.58059 25.8208 6.33146C25.9104 6.08233 25.9552 5.80478 25.9552 5.49883C25.9552 5.19069 25.9104 4.91206 25.8208 4.66292C25.7334 4.4116 25.6001 4.21164 25.4209 4.06304C25.2417 3.91443 25.0188 3.84013 24.7522 3.84013C24.479 3.84013 24.2517 3.91443 24.0704 4.06304C23.8912 4.21164 23.7568 4.4116 23.6672 4.66292C23.5797 4.91206 23.536 5.19069 23.536 5.49883C23.536 5.80478 23.5797 6.08233 23.6672 6.33146C23.7568 6.58059 23.8912 6.77946 24.0704 6.92807C24.2517 7.07449 24.479 7.1477 24.7522 7.1477ZM29.3521 1.28651V8H28.1655V1.28651H29.3521ZM30.5724 8V2.96488H31.7591V8H30.5724ZM31.169 2.25026C30.9811 2.25026 30.8194 2.18798 30.6839 2.06341C30.5484 1.93666 30.4806 1.78478 30.4806 1.60776C30.4806 1.42856 30.5484 1.27667 30.6839 1.15211C30.8194 1.02536 30.9811 0.961979 31.169 0.961979C31.3591 0.961979 31.5209 1.02536 31.6542 1.15211C31.7897 1.27667 31.8574 1.42856 31.8574 1.60776C31.8574 1.78478 31.7897 1.93666 31.6542 2.06341C31.5209 2.18798 31.3591 2.25026 31.169 2.25026ZM35.1756 8.09834C34.6839 8.09834 34.2578 7.99017 33.8972 7.77381C33.5366 7.55746 33.2569 7.25478 33.058 6.86579C32.8613 6.47679 32.763 6.02223 32.763 5.50211C32.763 4.98199 32.8613 4.52634 33.058 4.13515C33.2569 3.74397 33.5366 3.4402 33.8972 3.22385C34.2578 3.0075 34.6839 2.89932 35.1756 2.89932C35.6674 2.89932 36.0935 3.0075 36.4541 3.22385C36.8147 3.4402 37.0933 3.74397 37.29 4.13515C37.4889 4.52634 37.5883 4.98199 37.5883 5.50211C37.5883 6.02223 37.4889 6.47679 37.29 6.86579C37.0933 7.25478 36.8147 7.55746 36.4541 7.77381C36.0935 7.99017 35.6674 8.09834 35.1756 8.09834ZM35.1822 7.1477C35.4488 7.1477 35.6717 7.07449 35.8509 6.92807C36.0301 6.77946 36.1634 6.58059 36.2508 6.33146C36.3404 6.08233 36.3852 5.80478 36.3852 5.49883C36.3852 5.19069 36.3404 4.91206 36.2508 4.66292C36.1634 4.4116 36.0301 4.21164 35.8509 4.06304C35.6717 3.91443 35.4488 3.84013 35.1822 3.84013C34.909 3.84013 34.6817 3.91443 34.5004 4.06304C34.3212 4.21164 34.1868 4.4116 34.0972 4.66292C34.0097 4.91206 33.966 5.19069 33.966 5.49883C33.966 5.80478 34.0097 6.08233 34.0972 6.33146C34.1868 6.58059 34.3212 6.77946 34.5004 6.92807C34.6817 7.07449 34.909 7.1477 35.1822 7.1477ZM42.5751 4.29578L41.4933 4.41379C41.4627 4.30452 41.4092 4.20181 41.3327 4.10565C41.2584 4.00949 41.1578 3.93191 41.0311 3.87291C40.9043 3.8139 40.7492 3.7844 40.5656 3.7844C40.3187 3.7844 40.1111 3.83794 39.9428 3.94502C39.7767 4.05211 39.6947 4.19088 39.6969 4.36134C39.6947 4.50776 39.7483 4.62686 39.8575 4.71865C39.969 4.81044 40.1526 4.88583 40.4083 4.94484L41.2671 5.12841C41.7435 5.23112 42.0976 5.39393 42.3292 5.61684C42.563 5.83975 42.6811 6.1315 42.6832 6.49209C42.6811 6.80897 42.5882 7.0887 42.4046 7.33127C42.2232 7.57167 41.9708 7.75961 41.6474 7.8951C41.3239 8.0306 40.9524 8.09834 40.5328 8.09834C39.9166 8.09834 39.4205 7.9694 39.0446 7.71153C38.6687 7.45147 38.4447 7.08979 38.3726 6.62649L39.5297 6.51503C39.5822 6.74231 39.6936 6.91387 39.8641 7.02969C40.0346 7.14552 40.2564 7.20343 40.5296 7.20343C40.8115 7.20343 41.0377 7.14552 41.2081 7.02969C41.3808 6.91387 41.4671 6.77072 41.4671 6.60026C41.4671 6.45603 41.4114 6.33692 41.2999 6.24295C41.1906 6.14898 41.0202 6.07686 40.7885 6.0266L39.9297 5.84631C39.4467 5.74578 39.0894 5.57641 38.8577 5.33821C38.6261 5.09781 38.5114 4.79405 38.5135 4.4269C38.5114 4.11658 38.5955 3.84778 38.7659 3.6205C38.9386 3.39103 39.1779 3.21401 39.4838 3.08945C39.792 2.9627 40.1471 2.89932 40.5492 2.89932C41.1393 2.89932 41.6037 3.02498 41.9424 3.2763C42.2833 3.52762 42.4942 3.86744 42.5751 4.29578ZM43.6618 9.88817V2.96488H44.8287V3.79751H44.8976C44.9588 3.67513 45.0451 3.5451 45.1566 3.40742C45.268 3.26756 45.4188 3.14845 45.6089 3.05011C45.7991 2.94958 46.0416 2.89932 46.3367 2.89932C46.7257 2.89932 47.0764 2.99875 47.3889 3.19762C47.7036 3.39431 47.9527 3.68606 48.1363 4.07287C48.3221 4.4575 48.415 4.92954 48.415 5.489C48.415 6.0419 48.3243 6.51176 48.1429 6.89857C47.9615 7.28538 47.7145 7.58041 47.402 7.78365C47.0895 7.98689 46.7355 8.08851 46.3399 8.08851C46.0515 8.08851 45.8122 8.04043 45.622 7.94427C45.4319 7.84812 45.2789 7.73229 45.1631 7.5968C45.0495 7.45912 44.961 7.32909 44.8976 7.20671H44.8484V9.88817H43.6618ZM44.8255 5.48244C44.8255 5.80806 44.8714 6.09325 44.9631 6.33802C45.0571 6.58278 45.1915 6.774 45.3663 6.91168C45.5434 7.04717 45.7575 7.11492 46.0088 7.11492C46.2711 7.11492 46.4907 7.04499 46.6677 6.90512C46.8448 6.76307 46.9781 6.56967 47.0677 6.32491C47.1595 6.07796 47.2053 5.79714 47.2053 5.48244C47.2053 5.16993 47.1605 4.89239 47.0709 4.64981C46.9813 4.40723 46.848 4.2171 46.671 4.07943C46.494 3.94175 46.2733 3.87291 46.0088 3.87291C45.7553 3.87291 45.5401 3.93956 45.3631 4.07287C45.1861 4.20618 45.0517 4.39303 44.9599 4.63342C44.8703 4.87381 44.8255 5.15682 44.8255 5.48244ZM50.8801 8.10162C50.561 8.10162 50.2736 8.0448 50.0179 7.93116C49.7644 7.81534 49.5634 7.64488 49.4148 7.41978C49.2683 7.19469 49.1951 6.91714 49.1951 6.58715C49.1951 6.30305 49.2476 6.06812 49.3525 5.88237C49.4574 5.69661 49.6005 5.548 49.7819 5.43655C49.9633 5.32509 50.1676 5.24096 50.3949 5.18414C50.6244 5.12513 50.8615 5.08252 51.1063 5.05629C51.4013 5.0257 51.6406 4.99838 51.8241 4.97434C52.0077 4.94811 52.141 4.90878 52.2241 4.85633C52.3093 4.80169 52.3519 4.71756 52.3519 4.60392V4.58425C52.3519 4.3373 52.2787 4.14608 52.1323 4.01059C51.9859 3.87509 51.775 3.80735 51.4996 3.80735C51.209 3.80735 50.9784 3.87072 50.8079 3.99747C50.6397 4.12423 50.526 4.27392 50.467 4.44657L49.359 4.28922C49.4465 3.98327 49.5907 3.72758 49.7917 3.52215C49.9928 3.31454 50.2387 3.15938 50.5293 3.05667C50.82 2.95177 51.1412 2.89932 51.4931 2.89932C51.7356 2.89932 51.9771 2.92773 52.2175 2.98455C52.4579 3.04137 52.6775 3.13534 52.8764 3.26646C53.0753 3.3954 53.2348 3.57132 53.355 3.79423C53.4774 4.01714 53.5386 4.29578 53.5386 4.63014V8H52.3978V7.30833H52.3585C52.2864 7.44819 52.1847 7.57931 52.0536 7.7017C51.9247 7.82189 51.7619 7.91914 51.5652 7.99344C51.3707 8.06556 51.1423 8.10162 50.8801 8.10162ZM51.1882 7.22965C51.4264 7.22965 51.6329 7.18267 51.8078 7.0887C51.9826 6.99254 52.117 6.86579 52.211 6.70844C52.3071 6.55109 52.3552 6.37954 52.3552 6.19378V5.60045C52.318 5.63105 52.2547 5.65946 52.1651 5.68568C52.0777 5.71191 51.9793 5.73485 51.87 5.75452C51.7608 5.77419 51.6526 5.79167 51.5455 5.80697C51.4384 5.82227 51.3455 5.83538 51.2669 5.84631C51.0899 5.87035 50.9314 5.90968 50.7916 5.96432C50.6517 6.01895 50.5413 6.09544 50.4605 6.19378C50.3796 6.28994 50.3392 6.41451 50.3392 6.56748C50.3392 6.78602 50.4189 6.95102 50.5785 7.06247C50.738 7.17393 50.9413 7.22965 51.1882 7.22965ZM56.9281 8.09834C56.4255 8.09834 55.9939 7.98798 55.6333 7.76726C55.2749 7.54653 54.9984 7.24167 54.8039 6.85267C54.6116 6.46149 54.5154 6.0113 54.5154 5.50211C54.5154 4.99073 54.6138 4.53945 54.8105 4.14827C55.0072 3.7549 55.2847 3.44894 55.6431 3.23041C56.0037 3.00968 56.4298 2.89932 56.9216 2.89932C57.3302 2.89932 57.6919 2.97472 58.0066 3.12551C58.3235 3.27411 58.5759 3.485 58.7638 3.75817C58.9518 4.02916 59.0589 4.34604 59.0851 4.70882H57.9509C57.905 4.46624 57.7957 4.26409 57.6231 4.10237C57.4526 3.93847 57.2242 3.85652 56.9379 3.85652C56.6954 3.85652 56.4823 3.92208 56.2987 4.0532C56.1151 4.18214 55.972 4.3679 55.8693 4.61047C55.7688 4.85305 55.7185 5.14371 55.7185 5.48244C55.7185 5.82555 55.7688 6.12057 55.8693 6.36752C55.9698 6.61228 56.1108 6.80132 56.2922 6.93463C56.4757 7.06575 56.691 7.13131 56.9379 7.13131C57.1128 7.13131 57.269 7.09853 57.4067 7.03297C57.5466 6.96522 57.6635 6.86797 57.7575 6.74122C57.8514 6.61447 57.9159 6.4604 57.9509 6.27901H59.0851C59.0567 6.63523 58.9518 6.95102 58.7704 7.22638C58.589 7.49955 58.342 7.71372 58.0295 7.86888C57.717 8.02185 57.3499 8.09834 56.9281 8.09834ZM62.2886 8.09834C61.7838 8.09834 61.3478 7.99344 60.9806 7.78365C60.6157 7.57167 60.3348 7.27227 60.1382 6.88546C59.9415 6.49646 59.8431 6.03862 59.8431 5.51194C59.8431 4.99401 59.9415 4.53945 60.1382 4.14827C60.337 3.7549 60.6146 3.44894 60.9708 3.23041C61.327 3.00968 61.7455 2.89932 62.2263 2.89932C62.5366 2.89932 62.8295 2.94958 63.1048 3.05011C63.3824 3.14845 63.6271 3.30143 63.8391 3.50904C64.0533 3.71665 64.2215 3.98108 64.3439 4.30233C64.4663 4.6214 64.5275 5.00166 64.5275 5.4431V5.80697H60.4004V5.00712H63.39C63.3878 4.77984 63.3387 4.57769 63.2425 4.40068C63.1463 4.22148 63.0119 4.08052 62.8393 3.97781C62.6688 3.87509 62.47 3.82374 62.2427 3.82374C62.0001 3.82374 61.787 3.88274 61.6035 4.00075C61.4199 4.11658 61.2767 4.26955 61.174 4.45968C61.0735 4.64762 61.0221 4.85414 61.02 5.07924V5.77747C61.02 6.07031 61.0735 6.32163 61.1806 6.53142C61.2877 6.73903 61.4374 6.89857 61.6297 7.01002C61.822 7.11929 62.0471 7.17393 62.305 7.17393C62.4776 7.17393 62.6339 7.14989 62.7737 7.10181C62.9136 7.05154 63.0349 6.97833 63.1376 6.88218C63.2403 6.78602 63.3179 6.66692 63.3703 6.52487L64.4783 6.64943C64.4084 6.94228 64.2751 7.19797 64.0784 7.4165C63.8839 7.63286 63.6348 7.80113 63.331 7.92133C63.0272 8.03934 62.6798 8.09834 62.2886 8.09834Z" fill="white"/>
</svg>
